<svg id="visual" viewBox="0 0 900 600" width="900" height="600" xmlns="http://www.w3.org/2000/svg" xmlns:xlink="http://www.w3.org/1999/xlink" version="1.1"><path d="M746 600L753.5 588.8C761 577.7 776 555.3 776 533.2C776 511 761 489 762.5 466.8C764 444.7 782 422.3 782 400C782 377.7 764 355.3 758 333.2C752 311 758 289 771.5 266.8C785 244.7 806 222.3 813.5 200C821 177.7 815 155.3 797 133.2C779 111 749 89 744.5 66.8C740 44.7 761 22.3 771.5 11.2L782 0L900 0L900 11.2C900 22.3 900 44.7 900 66.8C900 89 900 111 900 133.2C900 155.3 900 177.7 900 200C900 222.3 900 244.7 900 266.8C900 289 900 311 900 333.2C900 355.3 900 377.7 900 400C900 422.3 900 444.7 900 466.8C900 489 900 511 900 533.2C900 555.3 900 577.7 900 588.8L900 600Z" fill="#101824"></path><path d="M710 600L713 588.8C716 577.7 722 555.3 720.5 533.2C719 511 710 489 713 466.8C716 444.7 731 422.3 726.5 400C722 377.7 698 355.3 690.5 333.2C683 311 692 289 707 266.8C722 244.7 743 222.3 753.5 200C764 177.7 764 155.3 749 133.2C734 111 704 89 701 66.8C698 44.7 722 22.3 734 11.2L746 0L783 0L772.5 11.2C762 22.3 741 44.7 745.5 66.8C750 89 780 111 798 133.2C816 155.3 822 177.7 814.5 200C807 222.3 786 244.7 772.5 266.8C759 289 753 311 759 333.2C765 355.3 783 377.7 783 400C783 422.3 765 444.7 763.5 466.8C762 489 777 511 777 533.2C777 555.3 762 577.7 754.5 588.8L747 600Z" fill="#121c2b"></path><path d="M656 600L657.5 588.8C659 577.7 662 555.3 660.5 533.2C659 511 653 489 656 466.8C659 444.7 671 422.3 666.5 400C662 377.7 641 355.3 633.5 333.2C626 311 632 289 651.5 266.8C671 244.7 704 222.3 714.5 200C725 177.7 713 155.3 698 133.2C683 111 665 89 662 66.8C659 44.7 671 22.3 677 11.2L683 0L747 0L735 11.2C723 22.3 699 44.7 702 66.8C705 89 735 111 750 133.2C765 155.3 765 177.7 754.5 200C744 222.3 723 244.7 708 266.8C693 289 684 311 691.5 333.2C699 355.3 723 377.7 727.5 400C732 422.3 717 444.7 714 466.8C711 489 720 511 721.5 533.2C723 555.3 717 577.7 714 588.8L711 600Z" fill="#1a263b"></path><path d="M566 600L575 588.8C584 577.7 602 555.3 608 533.2C614 511 608 489 606.5 466.8C605 444.7 608 422.3 602 400C596 377.7 581 355.3 579.5 333.2C578 311 590 289 603.5 266.8C617 244.7 632 222.3 641 200C650 177.7 653 155.3 639.5 133.2C626 111 596 89 585.5 66.8C575 44.7 584 22.3 588.5 11.2L593 0L684 0L678 11.2C672 22.3 660 44.7 663 66.8C666 89 684 111 699 133.2C714 155.3 726 177.7 715.5 200C705 222.3 672 244.7 652.5 266.8C633 289 627 311 634.5 333.2C642 355.3 663 377.7 667.5 400C672 422.3 660 444.7 657 466.8C654 489 660 511 661.5 533.2C663 555.3 660 577.7 658.5 588.8L657 600Z" fill="#2b3a56"></path><path d="M521 600L528.5 588.8C536 577.7 551 555.3 555.5 533.2C560 511 554 489 555.5 466.8C557 444.7 566 422.3 555.5 400C545 377.7 515 355.3 510.5 333.2C506 311 527 289 540.5 266.8C554 244.7 560 222.3 566 200C572 177.7 578 155.3 569 133.2C560 111 536 89 531.5 66.8C527 44.7 542 22.3 549.5 11.2L557 0L594 0L589.5 11.2C585 22.3 576 44.7 586.5 66.8C597 89 627 111 640.5 133.2C654 155.3 651 177.7 642 200C633 222.3 618 244.7 604.5 266.8C591 289 579 311 580.5 333.2C582 355.3 597 377.7 603 400C609 422.3 606 444.7 607.5 466.8C609 489 615 511 609 533.2C603 555.3 585 577.7 576 588.8L567 600Z" fill="#2e3e5c"></path><path d="M359 600L357.5 588.8C356 577.7 353 555.3 353 533.2C353 511 356 489 363.5 466.8C371 444.7 383 422.3 371 400C359 377.7 323 355.3 320 333.2C317 311 347 289 363.5 266.8C380 244.7 383 222.3 375.5 200C368 177.7 350 155.3 335 133.2C320 111 308 89 326 66.8C344 44.7 392 22.3 416 11.2L440 0L558 0L550.5 11.2C543 22.3 528 44.7 532.5 66.8C537 89 561 111 570 133.2C579 155.3 573 177.7 567 200C561 222.3 555 244.7 541.5 266.8C528 289 507 311 511.5 333.2C516 355.3 546 377.7 556.5 400C567 422.3 558 444.7 556.5 466.8C555 489 561 511 556.5 533.2C552 555.3 537 577.7 529.5 588.8L522 600Z" fill="#2b3a56"></path><path d="M251 600L249.5 588.8C248 577.7 245 555.3 243.5 533.2C242 511 242 489 257 466.8C272 444.7 302 422.3 294.5 400C287 377.7 242 355.3 228.5 333.2C215 311 233 289 252.5 266.8C272 244.7 293 222.3 294.5 200C296 177.7 278 155.3 263 133.2C248 111 236 89 248 66.8C260 44.7 296 22.3 314 11.2L332 0L441 0L417 11.2C393 22.3 345 44.7 327 66.8C309 89 321 111 336 133.2C351 155.3 369 177.7 376.5 200C384 222.3 381 244.7 364.5 266.8C348 289 318 311 321 333.2C324 355.3 360 377.7 372 400C384 422.3 372 444.7 364.5 466.8C357 489 354 511 354 533.2C354 555.3 357 577.7 358.5 588.8L360 600Z" fill="#1a263b"></path><path d="M179 600L179 588.8C179 577.7 179 555.3 177.5 533.2C176 511 173 489 186.5 466.8C200 444.7 230 422.3 222.5 400C215 377.7 170 355.3 152 333.2C134 311 143 289 167 266.8C191 244.7 230 222.3 231.5 200C233 177.7 197 155.3 177.5 133.2C158 111 155 89 173 66.8C191 44.7 230 22.3 249.5 11.2L269 0L333 0L315 11.2C297 22.3 261 44.7 249 66.8C237 89 249 111 264 133.2C279 155.3 297 177.7 295.5 200C294 222.3 273 244.7 253.5 266.8C234 289 216 311 229.5 333.2C243 355.3 288 377.7 295.5 400C303 422.3 273 444.7 258 466.8C243 489 243 511 244.5 533.2C246 555.3 249 577.7 250.5 588.8L252 600Z" fill="#121c2b"></path><path d="M0 600L0 588.8C0 577.7 0 555.3 0 533.2C0 511 0 489 0 466.8C0 444.7 0 422.3 0 400C0 377.7 0 355.3 0 333.2C0 311 0 289 0 266.8C0 244.7 0 222.3 0 200C0 177.7 0 155.3 0 133.2C0 111 0 89 0 66.8C0 44.7 0 22.3 0 11.2L0 0L270 0L250.5 11.2C231 22.3 192 44.7 174 66.8C156 89 159 111 178.5 133.2C198 155.3 234 177.7 232.5 200C231 222.3 192 244.7 168 266.8C144 289 135 311 153 333.2C171 355.3 216 377.7 223.5 400C231 422.3 201 444.7 187.5 466.8C174 489 177 511 178.5 533.2C180 555.3 180 577.7 180 588.8L180 600Z" fill="#101824"></path></svg>